<svg version="1.1" viewBox="0 0 24 24" xml:space="preserve" xmlns="http://www.w3.org/2000/svg">
<path class="st0" d="m2672.1-1849.5"/>
<path d="m14.16 8.2648 4.3283-5.2071" stroke-miterlimit="10" style="-inkscape-stroke:none"/><g><path d="m18.418 3-4.3281 5.207 0.14062 0.11523 4.3281-5.207z" stroke-miterlimit="10" style="-inkscape-stroke:none"/><path class="st2" d="m16.525 5.4344a0.72506 0.54929 43.938 0 1 0.14096 0.89864 0.72506 0.54929 43.938 0 1-0.90324-0.10757 0.72506 0.54929 43.938 0 1-0.14096-0.89864 0.72506 0.54929 43.938 0 1 0.90324 0.10757z" stroke-width=".21972"/><path class="st2" d="m17.809 3.9219a0.94477 0.72506 43.938 0 1 0.17721 1.1777 0.94477 0.72506 43.938 0 1-1.1834-0.13346 0.94477 0.72506 43.938 0 1-0.17721-1.1777 0.94477 0.72506 43.938 0 1 1.1834 0.13346z" stroke-width=".21972"/></g><path class="st2" d="m7.3051 6.6828 4.6579 5.4928 4.6579-5.4928zm6.3716 2.6365-1.7357 2.0872-3.4714-4.1745h6.9428z" stroke-width=".21971"/><path d="m11.73 11.164v8.4004l-4.9434 1.4355h9.3496v-0.50977h-5.7695l1.873-0.54297v-8.7832z" stroke-miterlimit="10" style="-inkscape-stroke:none"/><path class="st2" d="m8.6014 6.1116-1.5599 0.37351 0.37351 1.5599c-0.85687 0.19774-1.7357-0.32956-1.9334-1.1864s0.32956-1.7357 1.1864-1.9334 1.7137 0.32956 1.9334 1.1864z" stroke-width=".21971"/><path class="st2" d="m11.941 10.835-1.9334-2.3289c0.1538 0.10986 0.43942 0.26365 0.8349 0.32956 0.50533 0.087884 0.90081-0.043942 1.0986-0.10986 0.21971-0.087884 0.5273-0.17577 0.87884-0.21971 0.41745-0.065913 0.79096-0.021971 1.0546 0-0.32956 0.39548-0.63716 0.76898-0.96672 1.1645z" stroke-width=".21971"/>
</svg>
